<?xml version="1.0" standalone="no"?>
<!DOCTYPE svg PUBLIC "-//W3C//DTD SVG 20010904//EN"
 "http://www.w3.org/TR/2001/REC-SVG-20010904/DTD/svg10.dtd">
<svg version="1.0" xmlns="http://www.w3.org/2000/svg"
 width="669.000000pt" height="669.000000pt" viewBox="0 0 669.000000 669.000000"
 preserveAspectRatio="xMidYMid meet">
<metadata>
Created by potrace 1.11, written by Peter Selinger 2001-2013
</metadata>
<g transform="translate(0.000000,669.000000) scale(0.100000,-0.100000)"
fill="#000000" stroke="none">
<path d="M779 6358 c-3 -9 -4 -916 -1 -934 2 -12 22 -30 48 -44 24 -14 44 -28
44 -31 0 -4 8 -9 18 -13 20 -6 50 -25 70 -44 7 -7 18 -10 23 -7 5 4 9 2 9 -3
0 -6 24 -25 53 -43 74 -46 213 -136 272 -176 28 -18 55 -33 62 -33 6 0 13 -4
15 -8 5 -12 71 -60 88 -64 8 -2 25 -13 39 -25 14 -12 28 -20 33 -17 4 3 8 0 8
-6 0 -6 4 -9 9 -6 5 4 11 2 13 -3 4 -11 107 -81 119 -81 5 0 9 -5 9 -11 0 -5
4 -8 9 -5 5 3 11 -1 15 -9 3 -8 11 -15 17 -15 7 0 20 -6 28 -14 9 -8 22 -16
30 -18 7 -2 24 -13 37 -25 13 -13 30 -23 39 -23 8 0 15 -4 15 -10 0 -5 11 -12
25 -16 14 -3 25 -10 25 -15 0 -9 54 -40 66 -38 4 0 10 -4 13 -9 5 -8 79 -57
296 -197 33 -22 63 -38 68 -37 4 1 7 -2 7 -8 0 -5 17 -19 38 -30 70 -38 107
-62 114 -74 4 -6 8 -7 8 -1 0 6 3 6 8 0 15 -22 242 -162 242 -150 0 3 7 -1 16
-9 8 -9 20 -14 25 -11 5 4 9 1 9 -4 0 -6 9 -11 19 -11 11 0 22 -4 25 -9 5 -7
41 -19 81 -26 6 -1 17 -5 25 -8 79 -34 384 -56 495 -36 28 5 70 11 94 14 23 3
52 10 62 16 10 5 19 7 19 3 0 -3 6 -1 13 5 8 6 17 8 20 4 4 -3 7 -1 7 6 0 7 4
10 9 7 14 -9 188 66 202 87 3 5 8 7 11 5 2 -1 47 25 99 59 53 34 103 65 112
69 9 3 14 11 10 17 -3 5 -2 7 4 4 9 -6 81 37 94 56 3 5 9 8 13 8 9 -2 155 90
178 112 10 9 20 16 22 15 3 -2 40 20 83 48 43 28 114 74 158 102 44 28 85 56
92 62 7 5 17 10 22 10 6 0 14 8 20 18 5 9 11 15 13 12 5 -6 68 33 68 43 0 4 5
5 10 2 6 -3 13 1 16 9 3 9 10 14 14 11 5 -3 14 1 22 8 7 7 32 24 56 38 23 14
40 28 37 31 -3 2 1 5 8 5 15 0 67 33 67 42 0 4 6 8 13 8 6 0 37 17 67 37 66
44 44 30 275 177 55 35 102 66 105 69 3 3 21 13 40 24 19 10 41 26 48 35 7 9
15 15 18 13 8 -6 184 111 185 123 5 46 3 929 -2 937 -6 10 -174 -93 -197 -121
-7 -9 -16 -15 -20 -14 -4 1 -36 -17 -72 -40 -36 -23 -69 -44 -75 -46 -5 -2
-14 -8 -20 -13 -5 -5 -39 -27 -75 -50 -36 -23 -68 -45 -71 -50 -3 -6 -9 -8
-12 -6 -4 1 -16 -5 -27 -14 -11 -10 -22 -18 -25 -18 -3 0 -51 -30 -106 -66
-56 -36 -107 -68 -115 -71 -8 -3 -12 -8 -9 -12 2 -4 -1 -8 -8 -8 -13 0 -215
-128 -232 -147 -6 -6 -17 -12 -25 -14 -8 -2 -20 -10 -27 -18 -6 -9 -14 -15
-17 -14 -14 3 -115 -68 -108 -75 4 -5 2 -5 -5 -2 -6 4 -17 2 -25 -5 -7 -7 -29
-21 -48 -32 -19 -10 -41 -26 -47 -34 -7 -9 -13 -13 -13 -9 0 8 -143 -84 -148
-95 -2 -5 -8 -8 -14 -8 -6 0 -31 -15 -57 -33 -25 -18 -53 -36 -61 -40 -8 -4
-55 -34 -105 -67 -49 -33 -107 -69 -127 -80 -21 -11 -38 -25 -38 -30 0 -6 -3
-9 -7 -8 -11 3 -161 -91 -201 -126 -13 -12 -25 -20 -28 -19 -9 6 -33 -10 -28
-18 3 -5 2 -8 -3 -7 -12 4 -83 -34 -83 -44 0 -5 -7 -8 -15 -8 -9 0 -18 -7 -21
-15 -4 -8 -10 -12 -15 -9 -5 3 -9 0 -9 -5 0 -6 -6 -11 -14 -11 -7 0 -19 -7
-26 -15 -7 -9 -15 -13 -17 -11 -3 3 -17 0 -32 -6 -33 -13 -62 -17 -132 -19
-94 -2 -159 17 -245 72 -123 80 -148 94 -156 91 -5 -1 -8 2 -8 7 0 9 -71 55
-79 51 -2 -1 -7 2 -10 7 -13 18 -79 62 -85 56 -3 -4 -6 -1 -6 5 0 7 -7 12 -15
12 -8 0 -15 4 -15 8 0 5 -11 14 -25 20 -14 7 -31 17 -38 22 -28 24 -103 70
-114 70 -6 0 -13 3 -15 8 -1 4 -32 27 -67 51 -35 23 -60 37 -56 29 4 -7 -3 -2
-14 12 -11 14 -21 21 -21 15 0 -6 -3 -6 -8 0 -10 15 -224 151 -230 147 -3 -2
-8 1 -11 7 -8 13 -128 91 -141 91 -4 0 -10 3 -12 8 -1 4 -18 18 -37 31 -19 13
-31 17 -27 10 4 -8 -1 -5 -11 7 -21 24 -73 58 -73 47 0 -4 -7 2 -15 13 -8 10
-15 15 -15 11 0 -4 -6 -3 -12 2 -56 46 -78 62 -78 56 0 -3 -10 3 -22 15 -12
11 -27 20 -33 20 -6 0 -21 9 -33 20 -12 12 -22 18 -22 15 0 -3 -6 -1 -12 5
-35 30 -193 128 -200 124 -4 -3 -8 -1 -8 4 0 10 -53 50 -72 54 -7 2 -15 5 -18
8 -16 17 -80 60 -88 60 -5 0 -15 7 -22 15 -7 8 -16 12 -21 9 -5 -3 -9 -1 -9 4
0 5 -12 15 -27 23 -15 8 -34 20 -43 27 -14 12 -37 27 -145 94 -22 14 -44 25
-49 26 -5 0 -12 4 -15 9 -10 14 -90 67 -92 61z"/>
<path d="M3308 6335 c-3 -3 -84 -17 -110 -18 -10 -1 -18 -5 -18 -10 0 -4 -4
-6 -9 -3 -11 7 -151 -62 -151 -75 0 -6 -4 -8 -9 -5 -5 4 -21 -8 -35 -25 -14
-17 -26 -27 -26 -22 0 13 -58 -57 -94 -112 -27 -41 -58 -104 -62 -125 0 -3 -3
-12 -6 -20 -18 -45 -25 -107 -23 -191 2 -74 8 -109 29 -164 15 -38 30 -78 33
-87 3 -10 9 -18 14 -18 5 0 9 -6 9 -12 0 -7 11 -26 25 -42 14 -16 25 -33 25
-38 0 -4 7 -8 17 -8 9 0 14 -3 11 -6 -8 -7 36 -54 51 -54 6 0 11 -4 11 -9 0
-11 74 -55 86 -52 4 2 10 -1 13 -6 8 -13 81 -41 139 -54 43 -9 176 -13 212 -6
99 22 212 72 260 117 16 15 30 26 30 23 0 -4 27 24 67 70 32 38 56 77 47 77
-4 0 0 6 10 13 9 7 18 19 19 27 2 8 7 21 11 29 24 38 44 150 41 231 -2 47 -5
92 -7 100 -3 8 -8 32 -13 53 -4 20 -10 37 -14 37 -4 0 -7 10 -8 22 -1 11 -6
24 -10 27 -4 3 -9 12 -11 19 -5 24 -51 90 -74 106 -13 9 -22 19 -20 22 11 20
-199 159 -225 149 -7 -2 -13 -1 -13 4 0 5 -11 12 -24 15 -45 11 -191 27 -198
21z"/>
<path d="M803 5088 c-13 -6 -23 -15 -23 -19 0 -5 -7 -6 -15 -3 -8 4 -15 1 -15
-5 0 -6 -6 -11 -14 -11 -8 0 -22 -7 -30 -16 -9 -8 -16 -12 -16 -8 0 4 -9 -1
-21 -12 -12 -10 -23 -18 -25 -17 -7 5 -94 -41 -94 -50 0 -4 -4 -6 -9 -2 -5 3
-15 0 -23 -7 -7 -7 -20 -14 -28 -16 -8 -2 -26 -11 -40 -20 -14 -9 -28 -17 -31
-17 -13 0 -85 -41 -97 -55 -8 -8 -11 -9 -7 -3 3 8 -6 6 -24 -5 -17 -9 -31 -21
-31 -25 0 -5 -5 -5 -10 -2 -6 3 -10 2 -10 -4 0 -6 -7 -8 -15 -5 -8 4 -15 1
-15 -5 0 -6 -7 -11 -15 -11 -8 0 -15 -4 -15 -10 0 -6 -3 -10 -7 -9 -16 2 -53
-14 -53 -22 0 -5 -3 -8 -7 -7 -5 1 -24 -6 -43 -17 -19 -11 -38 -19 -42 -20 -3
0 -9 -3 -13 -6 -6 -6 89 -70 101 -68 4 0 10 -3 13 -8 11 -15 75 -56 87 -56 7
0 16 -7 18 -14 3 -8 10 -11 16 -8 6 3 13 -1 16 -9 3 -9 10 -16 15 -16 5 0 28
-12 52 -27 23 -14 44 -25 46 -24 2 2 7 -1 10 -6 8 -10 118 -83 127 -83 3 0 17
-9 31 -20 14 -11 29 -18 33 -15 4 3 10 -2 14 -10 3 -8 12 -15 21 -15 8 0 15
-4 15 -10 0 -5 6 -10 14 -10 8 0 16 -4 18 -9 2 -5 10 -11 18 -13 8 -2 23 -11
34 -20 10 -10 22 -15 26 -13 5 3 10 -2 14 -10 3 -8 12 -15 21 -15 8 0 15 -4
15 -10 0 -5 6 -10 14 -10 7 0 19 -7 26 -15 7 -8 16 -13 20 -10 5 3 10 2 12 -3
1 -4 18 -19 37 -32 20 -13 31 -18 27 -9 -4 7 -1 6 7 -3 8 -10 19 -18 26 -18 6
0 11 -4 11 -8 0 -8 29 -25 55 -32 6 -2 16 -10 23 -19 11 -13 12 -13 7 -1 -4 8
1 6 10 -5 9 -11 21 -19 26 -18 5 2 9 -2 9 -7 0 -6 6 -10 14 -10 7 0 19 -7 26
-15 7 -8 16 -12 21 -9 5 3 9 0 9 -6 0 -6 8 -14 18 -17 9 -4 28 -15 41 -25 13
-10 27 -16 31 -13 4 3 11 -2 14 -11 3 -8 10 -13 15 -10 5 3 11 -1 15 -9 3 -8
15 -15 26 -15 12 0 19 -4 16 -9 -5 -7 10 -15 39 -20 3 -1 14 -10 25 -21 12
-12 24 -19 29 -16 4 3 13 -4 21 -14 8 -10 17 -17 22 -14 4 3 8 0 8 -6 0 -6 4
-8 10 -5 5 3 10 1 10 -4 0 -6 7 -11 16 -11 9 0 12 -5 8 -12 -5 -7 -2 -9 9 -5
9 3 18 0 21 -9 3 -9 10 -13 15 -10 5 3 12 -1 15 -10 3 -8 10 -12 16 -9 5 3 10
1 10 -5 0 -6 4 -9 9 -6 4 3 16 -3 26 -14 10 -11 21 -17 25 -15 4 3 11 -2 14
-11 3 -8 10 -12 16 -9 5 3 10 1 10 -5 0 -6 5 -8 10 -5 6 3 10 1 10 -5 0 -6 12
-16 28 -23 15 -6 33 -17 40 -24 7 -7 20 -13 28 -13 8 0 14 -4 14 -10 0 -5 15
-16 33 -25 17 -8 72 -39 120 -70 48 -30 92 -55 96 -55 5 0 12 -7 15 -16 3 -8
10 -12 16 -9 5 3 10 1 10 -5 0 -10 48 -35 63 -32 4 1 7 -5 7 -15 0 -9 3 -14 6
-10 7 7 94 -83 94 -98 0 -6 9 -16 20 -23 12 -7 18 -16 15 -21 -2 -5 2 -14 10
-21 8 -7 15 -19 15 -26 0 -8 5 -14 11 -14 5 0 7 -4 4 -10 -3 -5 -2 -10 3 -10
5 0 9 -6 10 -12 0 -7 8 -33 18 -58 16 -42 17 -135 18 -1352 1 -718 4 -1310 9
-1314 4 -4 7 -2 7 4 0 7 3 12 8 11 15 -2 52 14 52 23 0 5 4 7 9 3 5 -3 15 0
23 7 7 7 46 29 85 48 40 19 73 39 73 43 0 5 4 6 9 3 5 -3 19 3 32 13 13 10 26
19 29 19 22 3 88 40 82 47 -4 4 1 5 10 2 10 -4 21 0 25 8 5 7 12 13 16 13 16
0 67 25 67 34 0 5 4 7 9 3 5 -3 15 1 23 8 7 7 29 19 48 27 19 8 41 21 48 30 9
10 11 10 6 1 -9 -17 10 -8 45 23 14 12 21 14 16 6 -5 -8 4 -4 19 10 15 14 29
24 32 23 2 -2 7 -3 12 -3 9 0 8 2228 -2 2290 -8 55 -14 85 -16 85 -2 0 -9 37
-12 63 -1 6 -4 12 -7 12 -4 0 -8 12 -9 27 -1 15 -5 29 -10 32 -4 3 -8 14 -10
23 -1 10 -10 34 -19 55 -9 21 -17 40 -18 43 -6 20 -20 47 -31 60 -7 8 -12 17
-12 20 0 14 -27 60 -35 60 -6 0 -7 3 -4 6 7 7 -29 63 -48 76 -5 4 -6 8 -1 8 6
0 1 7 -10 16 -10 8 -12 12 -4 8 15 -7 -21 39 -49 64 -8 6 -11 12 -6 12 4 0 -4
11 -18 24 -14 13 -23 27 -20 30 4 3 -1 6 -10 6 -10 0 -16 3 -15 8 1 4 -22 32
-51 62 -30 30 -51 48 -46 40 4 -8 -7 2 -24 23 -18 20 -39 37 -46 37 -8 0 -19
8 -24 18 -6 9 -11 13 -11 7 0 -5 -7 1 -16 13 -8 12 -19 22 -25 22 -5 0 -39 19
-76 43 -36 23 -67 41 -70 39 -2 -1 -13 7 -25 17 -11 11 -24 18 -28 16 -5 -3
-10 2 -14 10 -3 8 -12 15 -21 15 -8 0 -15 5 -15 12 0 6 -3 9 -6 5 -3 -3 -15 3
-27 13 -11 11 -24 17 -29 14 -4 -3 -8 0 -8 5 0 6 -7 11 -15 11 -8 0 -15 4 -15
8 0 5 -10 14 -22 21 -13 6 -41 22 -63 36 -22 13 -48 27 -57 31 -10 3 -18 10
-18 15 0 5 -5 9 -12 9 -6 0 -23 10 -36 23 -14 12 -22 15 -17 7 5 -8 -4 -4 -18
9 -15 14 -27 21 -27 17 0 -4 -10 2 -22 13 -11 11 -25 18 -30 15 -4 -3 -8 0 -8
6 0 6 -12 16 -27 23 -16 6 -30 14 -33 17 -11 11 -70 50 -76 50 -3 0 -19 9 -35
21 -16 11 -29 17 -29 12 0 -4 -4 -3 -8 3 -11 16 -105 77 -119 77 -7 0 -15 7
-17 14 -3 8 -10 11 -16 8 -5 -3 -10 -1 -10 5 0 6 -4 8 -10 5 -5 -3 -10 -2 -10
4 0 10 -53 42 -66 41 -3 -1 -12 7 -20 17 -7 10 -14 14 -14 9 0 -6 -7 -1 -16
10 -8 10 -12 12 -8 4 4 -8 -3 -5 -15 8 -12 12 -26 20 -32 17 -5 -4 -9 -2 -9 4
0 6 -15 18 -32 27 -18 9 -36 22 -40 28 -4 6 -8 7 -8 2 0 -5 -10 0 -22 11 -13
11 -45 33 -73 48 -27 15 -69 40 -92 56 -24 17 -43 26 -43 22 0 -4 -4 -3 -8 2
-14 19 -56 50 -47 35 5 -8 -8 0 -30 18 -22 17 -45 32 -52 32 -7 0 -13 5 -13
11 0 5 -4 8 -9 5 -5 -3 -11 1 -15 9 -3 8 -15 15 -26 15 -11 0 -20 5 -20 10 0
12 -8 12 -37 -2z"/>
<path d="M5795 5063 c-33 -20 -62 -40 -65 -43 -3 -4 -10 -9 -15 -11 -32 -13
-155 -93 -155 -101 0 -5 -3 -7 -8 -4 -4 2 -45 -20 -92 -50 -47 -29 -111 -68
-142 -86 -31 -17 -54 -36 -51 -42 4 -5 1 -6 -7 -1 -7 4 -15 4 -19 -1 -3 -5
-53 -38 -111 -73 -58 -34 -110 -68 -115 -74 -6 -7 -15 -13 -21 -14 -25 -5
-123 -70 -116 -77 4 -4 2 -6 -4 -4 -14 4 -114 -53 -114 -65 0 -4 -4 -6 -9 -3
-5 3 -20 -5 -35 -19 -15 -13 -29 -24 -32 -24 -10 2 -74 -36 -74 -43 0 -5 -6
-8 -13 -8 -7 0 -22 -8 -33 -18 -10 -10 -23 -19 -29 -20 -5 -1 -30 -15 -55 -30
-25 -16 -63 -39 -85 -52 -22 -13 -41 -28 -43 -32 -2 -4 -8 -8 -14 -8 -6 0 -30
-13 -55 -30 -24 -16 -48 -30 -52 -30 -4 0 -20 -11 -35 -25 -14 -13 -27 -25
-29 -25 -34 -8 -47 -14 -47 -21 0 -5 -6 -9 -14 -9 -7 0 -26 -12 -42 -27 -16
-15 -31 -26 -34 -26 -12 1 -69 -44 -63 -50 3 -4 0 -7 -7 -7 -7 0 -50 -37 -94
-83 -95 -98 -116 -123 -109 -131 4 -3 1 -6 -5 -6 -12 0 -98 -129 -94 -142 1
-4 -2 -8 -7 -8 -5 0 -14 -13 -21 -30 -7 -16 -17 -30 -22 -30 -6 0 -8 -7 -4
-15 3 -8 2 -15 -3 -15 -8 0 -24 -38 -22 -52 1 -5 -3 -8 -7 -8 -7 0 -42 -84
-45 -107 0 -4 -6 -19 -13 -32 -7 -14 -11 -28 -8 -33 3 -4 1 -8 -5 -8 -5 0 -8
-8 -6 -17 1 -10 -1 -22 -5 -28 -5 -5 -9 -13 -9 -17 -1 -5 -1 -9 -2 -10 0 -2
-2 -12 -4 -23 -1 -11 -6 -40 -10 -65 -5 -25 -9 -551 -9 -1170 l-1 -1125 34
-17 c20 -10 42 -18 50 -18 8 0 12 -3 9 -6 -4 -3 46 -32 110 -65 64 -33 122
-65 131 -72 12 -10 13 -9 7 1 -4 7 12 -1 36 -17 23 -16 46 -27 50 -25 5 3 8 0
8 -6 0 -6 4 -9 9 -6 5 4 11 2 13 -3 1 -5 10 -11 18 -13 8 -2 21 -9 28 -16 8
-7 18 -10 23 -7 5 4 9 2 9 -4 0 -5 10 -13 23 -17 12 -3 34 -15 50 -26 15 -11
27 -16 27 -12 0 4 8 0 18 -8 16 -14 32 -22 57 -28 6 -1 21 -11 34 -21 13 -10
27 -16 32 -13 5 3 9 0 9 -7 0 -7 3 -9 6 -6 4 4 8 595 9 1314 1 1228 2 1311 19
1357 10 28 25 60 33 73 9 13 13 23 9 23 -3 0 2 9 12 20 9 12 16 24 16 28 -1 4
7 13 17 20 11 7 19 18 19 23 0 6 13 24 30 42 16 18 30 35 30 39 0 4 9 10 21
13 11 4 18 9 15 12 -3 3 16 17 42 31 26 14 49 28 52 31 8 10 44 31 63 37 9 4
17 11 17 16 0 5 4 7 9 4 5 -3 12 1 15 10 3 8 10 13 14 10 5 -3 18 3 28 12 10
10 34 25 52 32 17 8 32 18 32 22 0 5 6 8 14 8 7 0 25 11 39 24 14 13 28 21 31
18 3 -3 6 0 6 7 0 7 3 10 8 8 6 -4 109 57 139 83 7 5 14 10 17 10 9 0 111 65
114 73 2 4 10 7 18 7 8 0 14 4 14 8 0 4 12 13 28 19 15 7 59 32 97 57 39 25
107 67 152 94 46 27 80 53 75 57 -4 5 -2 6 3 2 14 -7 87 37 77 47 -4 4 -2 6 4
4 13 -4 84 34 84 45 0 4 4 6 8 3 5 -3 18 2 28 12 10 9 36 26 57 37 21 11 47
28 58 38 10 10 19 15 19 12 0 -7 62 35 71 48 3 5 10 9 15 9 8 0 63 32 158 91
11 7 39 24 63 38 23 14 39 29 35 33 -4 4 -2 7 3 6 19 -4 34 0 47 13 7 6 30 21
51 32 20 11 37 23 37 27 0 5 4 8 10 8 13 0 114 62 118 72 2 4 7 8 12 8 18 0
161 95 158 105 -2 6 -9 9 -15 9 -7 -1 -13 2 -13 6 0 4 -51 33 -112 65 -286
147 -344 178 -355 187 -7 5 -17 7 -23 3 -5 -3 -10 -2 -10 3 0 8 -113 70 -222
123 -10 5 -27 14 -38 19 -25 12 -15 16 -85 -27z"/>
<path d="M1474 3290 c-11 -4 -27 -6 -36 -4 -10 1 -18 -2 -18 -7 0 -6 -4 -7
-10 -4 -5 3 -22 -1 -38 -9 -16 -8 -32 -12 -36 -9 -3 4 -6 1 -6 -6 0 -7 -4 -9
-10 -6 -5 3 -10 1 -10 -5 0 -6 -4 -9 -9 -5 -5 3 -17 -2 -25 -11 -9 -8 -16 -12
-16 -7 0 4 -5 0 -11 -9 -5 -10 -16 -18 -24 -18 -8 0 -21 -10 -29 -22 -9 -12
-16 -19 -16 -14 0 5 -16 -7 -35 -27 -19 -20 -35 -41 -35 -47 0 -5 -4 -10 -9
-10 -12 0 -71 -96 -64 -104 4 -3 2 -6 -4 -6 -9 0 -25 -39 -25 -60 0 -3 -4 -10
-10 -17 -5 -7 -7 -17 -3 -23 3 -5 2 -10 -2 -10 -5 0 -10 -10 -11 -22 -7 -90
-7 -170 0 -208 5 -25 10 -53 11 -62 1 -10 5 -18 10 -18 4 0 7 -6 5 -12 -2 -15
51 -122 63 -126 5 -2 7 -7 4 -12 -2 -4 24 -36 58 -71 75 -76 103 -99 111 -92
3 4 6 0 6 -7 0 -7 3 -11 6 -7 4 3 13 -1 21 -9 8 -8 19 -12 24 -9 5 4 9 2 9 -3
0 -7 46 -26 93 -38 4 -1 8 -3 10 -4 5 -5 68 -11 142 -13 81 -3 213 23 226 45
3 5 8 9 10 8 9 -3 57 19 64 30 3 5 11 8 16 5 5 -4 12 1 15 9 3 9 11 16 17 16
6 0 35 25 63 55 29 30 50 55 48 55 -3 0 4 10 15 21 22 24 56 90 53 102 -1 4 2
7 6 7 5 0 17 33 27 72 27 103 24 264 -5 318 -5 10 -6 20 -3 24 3 3 1 6 -5 6
-7 0 -11 4 -10 8 4 12 -25 82 -34 82 -4 0 -8 6 -8 14 0 7 -11 25 -25 40 -13
14 -22 26 -19 26 2 0 -17 22 -43 48 -27 27 -51 47 -55 45 -5 -2 -8 1 -8 6 0 6
-7 11 -15 11 -8 0 -15 4 -15 8 0 16 -125 72 -167 74 -7 1 -13 4 -13 8 0 7 -14
9 -116 13 -45 2 -90 0 -100 -3z"/>
<path d="M5068 3255 c-2 -2 -22 -5 -46 -9 -58 -8 -122 -27 -122 -37 0 -5 -6
-6 -14 -3 -8 3 -17 1 -20 -4 -3 -6 -27 -20 -52 -33 -44 -21 -190 -156 -180
-166 3 -3 -4 -14 -14 -26 -11 -11 -17 -24 -14 -29 3 -4 1 -8 -4 -8 -8 0 -26
-43 -19 -46 1 0 -3 -7 -10 -15 -22 -27 -40 -134 -36 -220 4 -117 6 -129 16
-129 4 0 5 -5 2 -10 -4 -6 -1 -17 5 -25 7 -8 9 -15 5 -15 -4 0 -2 -7 5 -15 7
-8 9 -15 4 -15 -5 0 -3 -4 4 -9 7 -4 14 -14 16 -22 4 -22 67 -119 77 -119 6 0
7 -4 4 -10 -3 -5 1 -10 10 -10 9 0 13 -4 10 -10 -3 -5 -2 -10 3 -10 5 0 22
-13 38 -30 16 -16 35 -30 42 -30 6 0 12 -4 12 -8 0 -10 50 -37 63 -34 4 1 7
-3 7 -10 0 -6 3 -8 7 -5 3 4 16 0 29 -8 12 -8 33 -17 46 -19 12 -3 41 -10 63
-15 37 -9 191 -8 225 1 8 2 31 8 50 12 45 11 140 57 140 68 0 5 4 7 9 3 5 -3
17 5 25 17 9 12 16 18 16 13 1 -6 9 0 19 12 10 12 21 19 25 16 3 -4 6 2 6 12
0 10 3 15 6 12 7 -6 41 31 42 46 0 5 11 17 23 28 12 10 19 19 15 19 -4 0 6 17
21 37 15 20 21 33 13 28 -11 -6 -11 -4 2 11 9 10 17 21 17 24 0 3 4 17 10 31
42 111 30 342 -22 407 -5 6 -6 12 -3 12 8 0 -23 58 -41 78 -7 7 -13 17 -13 21
0 7 -67 78 -112 118 -41 37 -150 91 -216 108 -55 14 -186 27 -194 20z"/>
</g>
</svg>
